<svg width="242" height="130" viewBox="0 0 242 130" fill="none" xmlns="http://www.w3.org/2000/svg">
<g clip-path="url(#clip0)">
<path d="M11.7617 116.495H14.2952V129.829H11.4341V120.929L7.14253 126.4L2.85094 120.973V129.829H0.0117188V116.495H2.58886L7.15345 122.305L11.7617 116.495Z" fill="white"/>
<path d="M22.2991 128.813C22.0916 129.01 21.8623 129.185 21.6111 129.337C21.3927 129.469 21.1306 129.589 20.814 129.698C20.4973 129.807 20.1369 129.862 19.7329 129.862C19.2524 129.862 18.8156 129.796 18.4334 129.654C18.0512 129.512 17.7236 129.327 17.4397 129.108C17.1557 128.879 16.9483 128.606 16.8063 128.3C16.6643 127.994 16.5879 127.667 16.5879 127.328C16.5879 126.607 16.8281 126.007 17.3195 125.515C17.8109 125.035 18.488 124.718 19.3507 124.576L22.2991 124.074C22.2991 123.703 22.1571 123.386 21.8841 123.146C21.6111 122.895 21.2071 122.774 20.672 122.774C20.3007 122.774 19.995 122.829 19.7329 122.927C19.4817 123.026 19.2633 123.135 19.0886 123.255C18.8811 123.397 18.7173 123.55 18.5753 123.735L17.1448 122.305C17.396 121.977 17.7127 121.672 18.0839 121.409C18.3897 121.18 18.7719 120.973 19.2415 120.776C19.7001 120.59 20.2461 120.492 20.8686 120.492C21.4692 120.492 22.0043 120.59 22.4957 120.776C22.9871 120.962 23.402 121.224 23.7624 121.551C24.1227 121.879 24.3958 122.272 24.5814 122.709C24.767 123.157 24.8653 123.626 24.8653 124.139V129.851H22.2882L22.2991 128.813ZM20.399 127.765C20.9668 127.765 21.4255 127.601 21.7749 127.263C22.1244 126.924 22.2991 126.455 22.2991 125.832V125.57L20.2024 125.919C19.5036 126.029 19.1541 126.345 19.1541 126.88C19.1541 127.153 19.2524 127.361 19.449 127.525C19.6455 127.678 19.9622 127.765 20.399 127.765Z" fill="white"/>
<path d="M30.0185 127.547V129.829H27.4414V116.495H30.0185V124.303L33.3492 120.492H36.2976L32.7704 124.489L36.4832 129.829H33.6331L31.1542 126.203L30.0185 127.547Z" fill="white"/>
<path d="M44.0196 128.813C43.834 129.01 43.6047 129.185 43.3317 129.337C43.1023 129.469 42.8184 129.589 42.4908 129.698C42.1632 129.807 41.781 129.862 41.3442 129.862C40.8201 129.862 40.3396 129.774 39.8918 129.589C39.4441 129.403 39.0619 129.152 38.7343 128.813C38.4067 128.475 38.1556 128.071 37.9808 127.601C37.8061 127.132 37.7188 126.586 37.7188 125.996V120.514H40.2959V125.723C40.2959 126.247 40.4597 126.673 40.7982 127.001C41.1367 127.328 41.5735 127.492 42.1086 127.492C42.6765 127.492 43.146 127.317 43.4955 126.957C43.8449 126.597 44.0196 126.061 44.0196 125.363V120.525H46.5968V129.862H44.0196V128.813Z" fill="white"/>
<path d="M54.305 128.813C54.0975 129.01 53.8682 129.185 53.617 129.337C53.3986 129.469 53.1365 129.589 52.8198 129.698C52.5031 129.807 52.1428 129.862 51.7387 129.862C51.2583 129.862 50.8214 129.796 50.4392 129.654C50.057 129.512 49.7294 129.327 49.4455 129.108C49.1616 128.879 48.9541 128.606 48.8122 128.3C48.6702 127.994 48.5938 127.667 48.5938 127.328C48.5938 126.607 48.834 126.007 49.3254 125.515C49.8168 125.035 50.4938 124.718 51.3565 124.576L54.305 124.074C54.305 123.703 54.163 123.386 53.89 123.146C53.617 122.895 53.2129 122.774 52.6779 122.774C52.3066 122.774 52.0008 122.829 51.7497 122.927C51.4985 123.026 51.2801 123.135 51.1054 123.255C50.8979 123.397 50.7341 123.55 50.5921 123.735L49.1616 122.305C49.4128 121.977 49.7294 121.672 50.0898 121.409C50.3956 121.18 50.7778 120.973 51.2473 120.776C51.706 120.59 52.252 120.492 52.8744 120.492C53.475 120.492 54.0101 120.59 54.5015 120.776C54.9929 120.962 55.4079 121.224 55.7682 121.551C56.1286 121.879 56.4016 122.272 56.5873 122.709C56.7729 123.157 56.8712 123.626 56.8712 124.139V129.851H54.294V128.813H54.305ZM52.4049 127.765C52.9727 127.765 53.4313 127.601 53.7808 127.263C54.1302 126.924 54.305 126.455 54.305 125.832V125.57L52.2083 125.919C51.5094 126.029 51.16 126.345 51.16 126.88C51.16 127.153 51.2582 127.361 51.4548 127.525C51.6623 127.678 51.9681 127.765 52.4049 127.765Z" fill="white"/>
<path d="M62.0264 127.547V129.829H59.4492V116.495H62.0264V124.303L65.357 120.492H68.3054L64.7782 124.489L68.491 129.829H65.63L63.1511 126.203L62.0264 127.547Z" fill="white"/>
<path d="M71.843 125.799C71.9413 126.302 72.2034 126.738 72.6184 127.11C73.0333 127.481 73.6012 127.667 74.3219 127.667C74.7259 127.667 75.0863 127.601 75.3921 127.481C75.6978 127.361 75.9599 127.23 76.1783 127.088C76.4185 126.924 76.626 126.728 76.8117 126.52L78.1439 128.235C77.86 128.551 77.5215 128.824 77.1174 129.054C76.7789 129.261 76.353 129.447 75.8616 129.61C75.3702 129.774 74.7915 129.862 74.1472 129.862C73.4592 129.862 72.8149 129.741 72.2143 129.49C71.6137 129.25 71.0786 128.912 70.6309 128.475C70.1832 128.049 69.8228 127.547 69.5717 126.99C69.3205 126.422 69.1895 125.821 69.1895 125.166C69.1895 124.533 69.3205 123.921 69.5717 123.353C69.8228 122.785 70.1723 122.283 70.62 121.857C71.0677 121.431 71.581 121.093 72.1597 120.842C72.7494 120.601 73.3718 120.47 74.0489 120.47C74.7041 120.47 75.3265 120.58 75.8944 120.809C76.4622 121.027 76.9645 121.344 77.3795 121.737C77.7945 122.13 78.1221 122.6 78.3623 123.146C78.6026 123.692 78.7118 124.271 78.7118 124.904C78.7118 125.068 78.7008 125.221 78.6899 125.341C78.679 125.461 78.6681 125.559 78.6462 125.646C78.6353 125.745 78.6244 125.788 78.6135 125.788L71.843 125.799ZM74.027 122.676C73.4592 122.676 72.9787 122.807 72.6074 123.069C72.2362 123.331 71.9741 123.659 71.8321 124.041H76.1237C76.0254 123.659 75.7852 123.331 75.4248 123.069C75.0754 122.807 74.6058 122.676 74.027 122.676Z" fill="white"/>
<path d="M85.0781 116.495H87.9392V129.829H85.0781V116.495Z" fill="white"/>
<path d="M93.3768 121.748C93.5624 121.519 93.7917 121.311 94.0647 121.115C94.2941 120.962 94.578 120.809 94.9056 120.678C95.2332 120.547 95.6154 120.481 96.0522 120.481C96.5764 120.481 97.0568 120.569 97.5046 120.754C97.9523 120.94 98.3345 121.202 98.6621 121.551C98.9897 121.901 99.2409 122.327 99.4156 122.818C99.5903 123.31 99.6777 123.877 99.6777 124.511V129.84H97.1005V124.817C97.1005 124.26 96.9367 123.812 96.5982 123.473C96.2597 123.135 95.8229 122.96 95.2878 122.96C94.7199 122.96 94.2504 123.135 93.9118 123.495C93.5624 123.856 93.3877 124.391 93.3877 125.09V129.829H90.8105V120.492H93.3877L93.3768 121.748Z" fill="white"/>
<path d="M101.568 125.166C101.568 124.544 101.699 123.943 101.972 123.386C102.234 122.818 102.606 122.327 103.053 121.901C103.512 121.475 104.047 121.126 104.659 120.874C105.27 120.612 105.925 120.492 106.613 120.492C107.258 120.492 107.826 120.59 108.295 120.787C108.776 120.984 109.169 121.202 109.485 121.442C109.857 121.726 110.162 122.043 110.414 122.392L108.797 123.976C108.645 123.757 108.459 123.561 108.241 123.386C108.066 123.233 107.836 123.102 107.553 122.971C107.269 122.84 106.952 122.774 106.603 122.774C106.275 122.774 105.958 122.84 105.663 122.96C105.369 123.08 105.106 123.255 104.877 123.473C104.648 123.692 104.462 123.943 104.331 124.238C104.2 124.533 104.135 124.838 104.135 125.177C104.135 125.505 104.2 125.821 104.331 126.116C104.462 126.411 104.648 126.662 104.877 126.88C105.106 127.099 105.369 127.274 105.663 127.394C105.958 127.514 106.275 127.579 106.603 127.579C106.963 127.579 107.28 127.525 107.553 127.405C107.836 127.284 108.077 127.153 108.273 127.022C108.503 126.859 108.71 126.662 108.885 126.444L110.414 127.962C110.162 128.322 109.846 128.639 109.485 128.912C109.169 129.152 108.776 129.37 108.295 129.567C107.815 129.763 107.258 129.862 106.613 129.862C105.925 129.862 105.281 129.731 104.659 129.479C104.047 129.217 103.501 128.879 103.053 128.453C102.595 128.027 102.234 127.525 101.972 126.968C101.699 126.389 101.568 125.788 101.568 125.166Z" fill="white"/>
<path d="M118.428 128.813C118.242 129.01 118.013 129.185 117.74 129.337C117.511 129.469 117.227 129.589 116.899 129.698C116.571 129.807 116.189 129.862 115.752 129.862C115.228 129.862 114.748 129.774 114.3 129.589C113.852 129.403 113.47 129.152 113.143 128.813C112.815 128.475 112.564 128.071 112.389 127.601C112.214 127.132 112.127 126.586 112.127 125.996V120.514H114.704V125.723C114.704 126.247 114.868 126.673 115.206 127.001C115.545 127.328 115.982 127.492 116.517 127.492C117.085 127.492 117.554 127.317 117.904 126.957C118.253 126.597 118.428 126.061 118.428 125.363V120.525H121.005V129.862H118.428V128.813Z" fill="white"/>
<path d="M128.999 120.481C129.6 120.481 130.168 120.601 130.703 120.842C131.238 121.082 131.718 121.409 132.133 121.824C132.548 122.239 132.876 122.742 133.116 123.31C133.356 123.888 133.477 124.5 133.477 125.166C133.477 125.832 133.356 126.444 133.116 127.022C132.876 127.601 132.548 128.093 132.133 128.508C131.718 128.922 131.249 129.25 130.703 129.49C130.168 129.731 129.589 129.851 128.999 129.851C128.541 129.851 128.137 129.785 127.798 129.665C127.46 129.545 127.165 129.392 126.935 129.228C126.673 129.054 126.433 128.846 126.226 128.606V129.84H123.648V116.506H126.226V121.824C126.433 121.584 126.662 121.366 126.935 121.158C127.165 120.994 127.449 120.842 127.798 120.7C128.148 120.547 128.552 120.481 128.999 120.481ZM128.53 127.568C128.835 127.568 129.13 127.514 129.403 127.394C129.687 127.274 129.927 127.11 130.135 126.902C130.342 126.695 130.506 126.444 130.626 126.149C130.746 125.854 130.812 125.526 130.812 125.166C130.812 124.806 130.746 124.489 130.626 124.183C130.506 123.888 130.342 123.637 130.135 123.43C129.927 123.222 129.676 123.058 129.403 122.938C129.119 122.818 128.835 122.764 128.53 122.764C128.224 122.764 127.929 122.818 127.656 122.938C127.372 123.058 127.132 123.222 126.924 123.43C126.717 123.637 126.553 123.888 126.433 124.183C126.313 124.478 126.247 124.806 126.247 125.166C126.247 125.526 126.313 125.843 126.433 126.149C126.553 126.444 126.717 126.695 126.924 126.902C127.132 127.11 127.383 127.274 127.656 127.394C127.929 127.514 128.224 127.568 128.53 127.568Z" fill="white"/>
<path d="M140.532 128.813C140.324 129.01 140.095 129.185 139.844 129.337C139.625 129.469 139.363 129.589 139.046 129.698C138.73 129.807 138.369 129.862 137.965 129.862C137.485 129.862 137.048 129.796 136.666 129.654C136.284 129.512 135.956 129.327 135.672 129.108C135.388 128.879 135.181 128.606 135.039 128.3C134.897 127.994 134.82 127.667 134.82 127.328C134.82 126.607 135.061 126.007 135.552 125.515C136.043 125.035 136.72 124.718 137.583 124.576L140.532 124.074C140.532 123.703 140.39 123.386 140.117 123.146C139.844 122.895 139.44 122.774 138.904 122.774C138.533 122.774 138.227 122.829 137.976 122.927C137.725 123.026 137.507 123.135 137.332 123.255C137.124 123.397 136.961 123.55 136.819 123.735L135.388 122.305C135.639 121.977 135.956 121.672 136.316 121.409C136.622 121.18 137.004 120.973 137.474 120.776C137.933 120.59 138.479 120.492 139.101 120.492C139.702 120.492 140.237 120.59 140.728 120.776C141.219 120.962 141.634 121.224 141.995 121.551C142.355 121.879 142.628 122.272 142.814 122.709C142.999 123.157 143.098 123.626 143.098 124.139V129.851H140.521V128.813H140.532ZM138.631 127.765C139.199 127.765 139.658 127.601 140.007 127.263C140.357 126.924 140.532 126.455 140.532 125.832V125.57L138.435 125.919C137.736 126.029 137.387 126.345 137.387 126.88C137.387 127.153 137.485 127.361 137.681 127.525C137.878 127.678 138.195 127.765 138.631 127.765Z" fill="white"/>
<path d="M146.722 117.566H149.004V120.514H150.904V122.796H149.004V126.509C149.004 126.804 149.113 127.044 149.331 127.252C149.55 127.459 149.823 127.558 150.15 127.558C150.413 127.558 150.642 127.525 150.838 127.459C150.937 127.437 151.024 127.405 151.101 127.361V129.556C150.948 129.611 150.784 129.654 150.609 129.709C150.456 129.752 150.271 129.774 150.063 129.807C149.856 129.829 149.626 129.851 149.386 129.851C148.436 129.851 147.704 129.589 147.191 129.065C146.678 128.54 146.427 127.721 146.427 126.618V122.807H144.811V120.525H145.673C145.968 120.525 146.208 120.416 146.416 120.186C146.623 119.968 146.722 119.662 146.722 119.28V117.566Z" fill="white"/>
<path d="M156.157 117.904C156.157 118.341 156.026 118.679 155.753 118.942C155.49 119.204 155.108 119.335 154.628 119.335C154.191 119.335 153.852 119.204 153.59 118.942C153.328 118.679 153.197 118.33 153.197 117.904C153.197 117.467 153.328 117.129 153.59 116.867C153.852 116.605 154.202 116.474 154.628 116.474C155.108 116.474 155.49 116.605 155.753 116.867C156.026 117.129 156.157 117.478 156.157 117.904ZM155.971 129.84H153.394V120.503H155.971V129.84Z" fill="white"/>
<path d="M167.874 125.166C167.874 125.788 167.743 126.389 167.47 126.946C167.208 127.514 166.847 128.005 166.388 128.431C165.941 128.857 165.406 129.206 164.805 129.458C164.204 129.72 163.571 129.84 162.905 129.84C162.228 129.84 161.595 129.709 161.005 129.458C160.404 129.195 159.88 128.857 159.432 128.431C158.985 128.005 158.624 127.503 158.351 126.946C158.089 126.378 157.947 125.788 157.947 125.166C157.947 124.544 158.078 123.943 158.351 123.386C158.613 122.818 158.974 122.327 159.432 121.901C159.88 121.475 160.404 121.126 161.005 120.874C161.606 120.612 162.239 120.492 162.905 120.492C163.56 120.492 164.194 120.623 164.805 120.874C165.406 121.136 165.941 121.475 166.388 121.901C166.836 122.327 167.197 122.829 167.47 123.386C167.743 123.954 167.874 124.544 167.874 125.166ZM160.634 125.166C160.634 125.494 160.699 125.799 160.819 126.083C160.939 126.367 161.103 126.607 161.311 126.815C161.518 127.011 161.769 127.175 162.042 127.295C162.326 127.416 162.61 127.47 162.916 127.47C163.222 127.47 163.517 127.416 163.79 127.295C164.073 127.175 164.314 127.022 164.521 126.815C164.729 126.618 164.892 126.367 165.013 126.083C165.133 125.799 165.198 125.494 165.198 125.166C165.198 124.838 165.133 124.533 165.013 124.249C164.892 123.965 164.729 123.725 164.521 123.517C164.314 123.32 164.063 123.157 163.79 123.037C163.517 122.916 163.222 122.862 162.916 122.862C162.61 122.862 162.315 122.916 162.042 123.037C161.769 123.157 161.518 123.31 161.311 123.517C161.103 123.714 160.939 123.965 160.819 124.249C160.688 124.533 160.634 124.838 160.634 125.166Z" fill="white"/>
<path d="M172.351 121.748C172.537 121.519 172.766 121.311 173.039 121.115C173.269 120.962 173.553 120.809 173.88 120.678C174.208 120.547 174.59 120.481 175.027 120.481C175.551 120.481 176.031 120.569 176.479 120.754C176.927 120.94 177.309 121.202 177.637 121.551C177.964 121.901 178.215 122.327 178.39 122.818C178.565 123.31 178.652 123.877 178.652 124.511V129.84H176.075V124.817C176.075 124.26 175.911 123.812 175.573 123.473C175.234 123.135 174.797 122.96 174.262 122.96C173.695 122.96 173.225 123.135 172.886 123.495C172.537 123.856 172.362 124.391 172.362 125.09V129.829H169.785V120.492H172.362V121.748H172.351Z" fill="white"/>
<path d="M191.407 125.745C191.407 125.363 191.243 125.057 190.915 124.838C190.588 124.62 190.184 124.434 189.692 124.271C189.201 124.118 188.677 123.954 188.109 123.79C187.541 123.626 187.017 123.408 186.525 123.124C186.034 122.851 185.63 122.48 185.302 122.021C184.975 121.562 184.811 120.962 184.811 120.197C184.811 119.706 184.92 119.225 185.139 118.767C185.357 118.308 185.663 117.915 186.067 117.577C186.471 117.238 186.962 116.965 187.541 116.768C188.12 116.572 188.764 116.474 189.474 116.474C190.205 116.474 190.85 116.572 191.396 116.758C191.942 116.943 192.4 117.162 192.772 117.391C193.187 117.653 193.558 117.959 193.853 118.286L192.138 120.055C191.931 119.848 191.712 119.662 191.472 119.509C191.254 119.378 190.992 119.247 190.686 119.138C190.38 119.018 190.042 118.963 189.659 118.963C189.092 118.963 188.644 119.094 188.327 119.367C188.011 119.64 187.847 119.957 187.847 120.318C187.847 120.722 188.011 121.027 188.327 121.235C188.655 121.442 189.059 121.628 189.55 121.792C190.042 121.945 190.566 122.108 191.134 122.272C191.701 122.436 192.226 122.654 192.717 122.938C193.208 123.222 193.613 123.583 193.94 124.041C194.268 124.5 194.421 125.111 194.421 125.854C194.421 126.422 194.311 126.946 194.082 127.437C193.864 127.918 193.536 128.344 193.099 128.704C192.662 129.064 192.138 129.348 191.516 129.545C190.893 129.752 190.173 129.851 189.365 129.851C188.524 129.851 187.792 129.742 187.159 129.512C186.525 129.294 186.001 129.043 185.586 128.759C185.095 128.431 184.669 128.06 184.309 127.656L186.023 126.029C186.252 126.28 186.525 126.509 186.842 126.706C187.104 126.87 187.432 127.022 187.825 127.164C188.207 127.306 188.655 127.372 189.168 127.372C189.889 127.372 190.435 127.219 190.806 126.902C191.221 126.597 191.407 126.203 191.407 125.745Z" fill="white"/>
<path d="M197.599 117.566H199.881V120.514H201.781V122.796H199.881V126.509C199.881 126.804 199.99 127.044 200.208 127.252C200.427 127.459 200.7 127.558 201.027 127.558C201.29 127.558 201.519 127.525 201.715 127.459C201.814 127.437 201.901 127.405 201.977 127.361V129.556C201.825 129.611 201.661 129.654 201.486 129.709C201.333 129.752 201.148 129.774 200.94 129.807C200.733 129.829 200.503 129.851 200.263 129.851C199.313 129.851 198.581 129.589 198.068 129.065C197.555 128.54 197.304 127.721 197.304 126.618V122.807H195.688V120.525H196.55C196.845 120.525 197.085 120.416 197.293 120.186C197.5 119.968 197.599 119.662 197.599 119.28V117.566Z" fill="white"/>
<path d="M210.463 128.813C210.277 129.01 210.048 129.185 209.775 129.337C209.546 129.469 209.262 129.589 208.934 129.698C208.607 129.807 208.224 129.862 207.788 129.862C207.263 129.862 206.783 129.774 206.335 129.589C205.887 129.403 205.505 129.152 205.178 128.813C204.85 128.475 204.599 128.071 204.424 127.601C204.249 127.132 204.162 126.586 204.162 125.996V120.514H206.739V125.723C206.739 126.247 206.903 126.673 207.242 127.001C207.58 127.328 208.017 127.492 208.552 127.492C209.12 127.492 209.578 127.317 209.928 126.957C210.277 126.597 210.452 126.061 210.452 125.363V120.525H213.029V129.862H210.452V128.813H210.463Z" fill="white"/>
<path d="M219.516 120.481C219.964 120.481 220.357 120.547 220.707 120.689C221.056 120.831 221.34 120.984 221.569 121.147C221.831 121.355 222.072 121.573 222.279 121.814V116.495H224.856V129.829H222.279V128.595C222.072 128.835 221.842 129.043 221.569 129.217C221.34 129.381 221.056 129.534 220.707 129.654C220.357 129.774 219.964 129.84 219.516 129.84C218.916 129.84 218.348 129.72 217.813 129.479C217.278 129.239 216.797 128.912 216.382 128.497C215.967 128.082 215.64 127.579 215.399 127.012C215.159 126.433 215.039 125.821 215.039 125.155C215.039 124.489 215.159 123.877 215.399 123.299C215.64 122.72 215.967 122.229 216.382 121.814C216.797 121.399 217.267 121.071 217.813 120.831C218.348 120.601 218.916 120.481 219.516 120.481ZM219.986 127.568C220.292 127.568 220.586 127.514 220.859 127.394C221.132 127.274 221.384 127.11 221.591 126.902C221.799 126.695 221.962 126.444 222.083 126.149C222.203 125.854 222.268 125.526 222.268 125.166C222.268 124.806 222.203 124.489 222.083 124.183C221.962 123.888 221.799 123.637 221.591 123.43C221.384 123.222 221.132 123.058 220.859 122.938C220.576 122.818 220.292 122.764 219.986 122.764C219.68 122.764 219.385 122.818 219.112 122.938C218.828 123.058 218.588 123.222 218.381 123.43C218.173 123.637 218.009 123.888 217.889 124.183C217.769 124.478 217.704 124.806 217.704 125.166C217.704 125.526 217.769 125.843 217.889 126.149C218.009 126.444 218.173 126.695 218.381 126.902C218.588 127.11 218.839 127.274 219.112 127.394C219.385 127.514 219.68 127.568 219.986 127.568Z" fill="white"/>
<path d="M230.284 117.904C230.284 118.341 230.153 118.679 229.88 118.942C229.617 119.204 229.235 119.335 228.755 119.335C228.318 119.335 227.979 119.204 227.717 118.942C227.455 118.679 227.324 118.33 227.324 117.904C227.324 117.467 227.455 117.129 227.717 116.867C227.979 116.605 228.329 116.474 228.755 116.474C229.235 116.474 229.617 116.605 229.88 116.867C230.142 117.129 230.284 117.478 230.284 117.904ZM230.087 129.84H227.51V120.503H230.087V129.84Z" fill="white"/>
<path d="M242.001 125.166C242.001 125.788 241.87 126.389 241.597 126.946C241.334 127.514 240.974 128.005 240.515 128.431C240.068 128.857 239.533 129.206 238.932 129.458C238.331 129.72 237.698 129.84 237.032 129.84C236.355 129.84 235.722 129.709 235.132 129.458C234.531 129.195 234.007 128.857 233.559 128.431C233.112 128.005 232.751 127.503 232.478 126.946C232.216 126.378 232.074 125.788 232.074 125.166C232.074 124.544 232.205 123.943 232.478 123.386C232.74 122.818 233.101 122.327 233.559 121.901C234.007 121.475 234.531 121.126 235.132 120.874C235.732 120.612 236.366 120.492 237.032 120.492C237.687 120.492 238.321 120.623 238.932 120.874C239.533 121.136 240.068 121.475 240.515 121.901C240.963 122.327 241.324 122.829 241.597 123.386C241.859 123.954 242.001 124.544 242.001 125.166ZM234.761 125.166C234.761 125.494 234.826 125.799 234.946 126.083C235.066 126.367 235.23 126.607 235.438 126.815C235.645 127.011 235.896 127.175 236.169 127.295C236.453 127.416 236.737 127.47 237.043 127.47C237.349 127.47 237.643 127.416 237.916 127.295C238.2 127.175 238.441 127.022 238.648 126.815C238.856 126.618 239.019 126.367 239.14 126.083C239.26 125.799 239.325 125.494 239.325 125.166C239.325 124.838 239.26 124.533 239.14 124.249C239.019 123.965 238.856 123.725 238.648 123.517C238.441 123.32 238.189 123.157 237.916 123.037C237.643 122.916 237.349 122.862 237.043 122.862C236.737 122.862 236.442 122.916 236.169 123.037C235.896 123.157 235.645 123.31 235.438 123.517C235.23 123.714 235.066 123.965 234.946 124.249C234.815 124.533 234.761 124.838 234.761 125.166Z" fill="white"/>
<path d="M87.4917 2.12939L53.1699 45.3729L19.1429 2.12939H0V101.382H21.2723V35.4466L53.1699 75.8618L85.0784 35.1627V101.382H106.351V2.12939H87.4917Z" fill="white"/>
<path d="M128.42 2.12939H149.692V101.382H128.42V2.12939Z" fill="white"/>
<path d="M170.408 29.0693C170.408 13.4754 183.883 0 205.144 0C227.127 0 237.752 13.4754 237.752 13.4754L224.986 26.9508C224.986 26.9508 217.899 18.444 206.553 18.444C198.046 18.444 193.078 23.4017 193.078 29.0802C193.078 47.5133 242 36.8771 242 72.3237C242 90.047 228.524 103.522 204.424 103.522C179.613 103.522 166.848 87.2187 166.848 87.2187L179.613 74.4531C179.613 74.4531 188.12 85.0893 203.004 85.0893C213.64 85.0893 219.308 79.4218 219.308 72.3237C219.33 53.8797 170.408 64.5159 170.408 29.0693Z" fill="white"/>
</g>
<defs>
<clipPath id="clip0">
<rect width="242" height="129.862" fill="white"/>
</clipPath>
</defs>
</svg>
